<svg xmlns="http://www.w3.org/2000/svg" xmlns:svgjs="http://svgjs.com/svgjs" xmlns:xlink="http://www.w3.org/1999/xlink" width="288" height="288"><svg xmlns="http://www.w3.org/2000/svg" width="288" height="288" enable-background="new 0 0 1000 1000" viewBox="0 0 1000 1000"><g fill="#fff" class="color000 svgShape" transform="matrix(.1 0 0 -.1 0 511)"><path d="M165.1,4332.3l-65.1-65.1V1135.9c0-2872.9,1.9-3137.1,30.6-3181.1c17.2-26.8,47.9-55.5,67-67c23-11.5,553.1-19.1,1468-17.2h1431.7l1845.1-1024c1102.5-612.5,1864.3-1024,1893-1024c26.8,0,74.6,15.3,103.3,34.4c40.2,23,432.6,681.4,1502.5,2511.2C9235.6-269,9890.2,869.9,9895.9,900.5c19.1,124.4,23,122.5-1240.3,962.8l-1203.9,802l-1.9,802v800.1l-65.1,65.1l-65.1,65.1H3774.9H230.1L165.1,4332.3z M7042.1,1459.4l3.8-2526.5L6100.4,820.1C5181.7,2655.6,5153,2709.2,5084.1,2741.8c-65.1,30.6-80.4,30.6-149.3,7.7c-76.6-26.8-84.2-40.2-834.5-1351.3C3684.9,670.8,3336.6,67.9,3328.9,60.2c-7.7-7.7-258.4,227.8-555.1,524.4c-511,511-545.5,539.8-610.6,539.8c-40.2,0-91.9-9.6-118.7-21.1c-32.5-15.3-277.5-380.9-790.5-1177.1L511.5-1229.8l-5.7,2587.7c-1.9,1424,0,2601.1,5.7,2614.5c5.7,19.1,669.9,23,3267.2,19.1l3259.6-5.7L7042.1,1459.4z M9417.4,866c5.7-3.8-2633.7-4530.5-2652.8-4547.7c-11.5-11.5-2754.3,1502.5-2790.6,1538.9c-7.7,7.7,740.7,13.4,1663.3,13.4c1148.4,0,1690.1,5.7,1716.9,19.1c99.5,53.6,95.7-28.7,95.7,2210.7v2076.7l981.9-652.7C8969.5,1164.6,9413.6,867.9,9417.4,866z M3807.4-1723.6c-1705.4-1.9-3104.5,0-3110.3,3.8c-7.7,9.6,1416.4,2239.4,1462.3,2289.2c23,23,99.5-44,578-522.5c499.6-497.6,557-549.3,614.4-549.3c34.5,0,86.1,13.4,116.8,30.6c38.3,23,243.1,367.5,784.7,1314.9l733.1,1282.4l960.8-1921.7L6910-1717.9L3807.4-1723.6z" class="color000 svgShape"/><path d="M2071.4,3543.7c-300.5-80.4-562.7-323.5-683.3-633.5c-44-114.8-51.7-156.9-51.7-350.3c0-185.7,7.7-239.3,45.9-335c160.8-413.4,490-654.6,920.6-675.6c281.4-13.4,516.8,70.8,725.4,258.4c585.7,526.4,367.5,1494.8-390.5,1726.4C2482.9,3582,2230.3,3585.8,2071.4,3543.7z M2615,3107.3c114.8-55.5,216.3-157,283.3-283.3c36.4-68.9,44-111,44-264.1s-7.7-195.2-44-264.1c-67-126.3-168.4-227.8-287.1-285.2c-147.4-72.7-363.7-74.6-514.9-7.7c-118.7,53.6-260.3,197.1-315.8,323.5c-55.5,124.4-55.5,342.6-1.9,467c47.8,103.4,179.9,254.6,262.2,296.7C2226.5,3187.7,2438.9,3193.5,2615,3107.3z" class="color000 svgShape"/></g></svg></svg>